<svg width="187" height="173" viewBox="0 0 187 173" fill="none" xmlns="http://www.w3.org/2000/svg">
<path d="M107.559 153.642C107.692 154.26 110.031 155.203 110.515 155.524C111.974 156.504 113.494 157.194 114.969 158.105C115.974 158.734 116.972 159.845 117.8 160.263C118.168 160.449 117.512 162.66 117.46 162.954C117.034 165.544 115.597 167.674 114.603 169.99C114.427 170.401 113.62 171.992 114.013 172.382C114.487 172.858 116.083 172.037 116.552 171.928C119.306 171.281 121.546 170.075 124.057 168.806C127.309 167.169 130.941 166.549 134.292 165.16C140.618 162.538 146.403 159.074 153.022 157.1C161.448 154.584 169.676 151.891 177.918 148.891C179.872 148.18 181.855 147.689 183.809 146.978C184.295 146.801 185.643 146.515 185.865 145.999C185.969 145.757 184.937 145.421 184.832 145.362C184.177 145.032 183.467 144.731 182.792 144.39L182.526 144.256C180.061 143.012 177.538 141.905 175.073 140.662C174.112 140.176 172.732 140.377 171.886 139.956C171.681 139.853 173.032 137.851 173.159 137.627C174.327 135.47 175.591 133.278 176.359 130.937C176.477 130.574 177.395 128.899 177.016 128.522C176.663 128.171 175.158 128.807 174.819 128.931C172.386 129.816 169.929 130.657 167.539 131.66C164.267 133.038 160.839 134.055 157.572 135.448C151.453 138.039 145.994 139.005 139.743 141.28C132.474 143.926 125.998 147.624 118.581 149.657C115.931 150.382 108.245 153.393 107.559 153.642Z" fill="#A0CADD"/>
<path d="M0.5448 24.2655C0.68638 24.8935 2.94277 25.9025 3.41288 26.2388C4.82921 27.2636 6.29776 27.9975 7.72855 28.9538C8.70373 29.6136 9.68268 30.7613 10.4839 31.2037C10.84 31.4003 10.2651 33.6211 10.2227 33.9174C9.87614 36.5262 8.5537 38.6475 7.65891 40.9666C7.50033 41.3776 6.76688 42.9676 7.15108 43.3714C7.61495 43.864 9.12047 43.0712 9.56665 42.9724C12.1817 42.383 14.2939 41.2155 16.662 39.9912C19.7309 38.412 23.1854 37.8706 26.3545 36.545C32.3356 34.0418 37.7805 30.6738 44.0579 28.8329C52.0482 26.4865 59.8454 23.9566 67.6481 21.1166C69.4976 20.4434 71.381 19.9936 73.2305 19.3204C73.6911 19.1528 74.9725 18.8948 75.1717 18.3782C75.2653 18.1358 74.2717 17.7726 74.1698 17.7099C73.5368 17.3605 72.8509 17.0394 72.198 16.6789L71.9408 16.5369C69.557 15.221 67.1202 14.0419 64.7365 12.726C63.8066 12.2126 62.4933 12.3827 61.6752 11.9373C61.4774 11.8281 62.7201 9.83542 62.8365 9.612C63.9017 7.45736 65.0577 5.26969 65.7361 2.92067C65.8406 2.5564 66.678 0.883424 66.3068 0.493014C65.9611 0.129661 64.5385 0.738015 64.2175 0.854876C61.9143 1.69315 59.5867 2.48593 57.3272 3.44421C54.2338 4.76043 50.9825 5.70819 47.8949 7.04039C42.1098 9.51753 36.9174 10.3655 30.9991 12.5196C24.1175 15.0243 18.0177 18.6126 10.9805 20.4943C8.46615 21.1648 1.19386 24.0292 0.5448 24.2655Z" fill="#A0CADD"/>
<path d="M107.559 153.642C107.692 154.26 110.031 155.203 110.515 155.524C111.974 156.504 113.494 157.194 114.969 158.105C115.974 158.734 116.972 159.845 117.8 160.263C118.168 160.449 117.512 162.66 117.46 162.954C117.034 165.544 115.597 167.674 114.603 169.99C114.427 170.401 113.62 171.992 114.013 172.382C114.487 172.858 116.083 172.037 116.552 171.928C119.306 171.281 121.546 170.075 124.057 168.806C127.309 167.169 130.941 166.549 134.292 165.16C140.618 162.538 146.403 159.074 153.022 157.1C161.448 154.584 169.676 151.891 177.918 148.891C179.872 148.18 181.855 147.689 183.809 146.978C184.295 146.801 185.643 146.515 185.865 145.999C185.969 145.757 184.937 145.421 184.832 145.362C184.177 145.032 183.467 144.731 182.792 144.39L182.526 144.256C180.061 143.012 177.538 141.905 175.073 140.662C174.112 140.176 172.732 140.377 171.886 139.956C171.681 139.853 173.032 137.851 173.159 137.627C174.327 135.47 175.591 133.278 176.359 130.937C176.477 130.574 177.395 128.899 177.016 128.522C176.663 128.171 175.158 128.807 174.819 128.931C172.386 129.816 169.929 130.657 167.539 131.66C164.267 133.038 160.839 134.055 157.572 135.448C151.453 138.039 145.994 139.005 139.743 141.28C132.474 143.926 125.998 147.624 118.581 149.657C115.931 150.382 108.245 153.393 107.559 153.642Z" stroke="#292524" stroke-width="0.351792" stroke-miterlimit="2.854" stroke-linecap="round" stroke-linejoin="round"/>
<path d="M0.5448 24.2655C0.68638 24.8935 2.94277 25.9025 3.41288 26.2388C4.82921 27.2636 6.29776 27.9975 7.72855 28.9538C8.70373 29.6136 9.68268 30.7613 10.4839 31.2037C10.84 31.4003 10.2651 33.6211 10.2227 33.9174C9.87614 36.5262 8.5537 38.6475 7.65891 40.9666C7.50033 41.3776 6.76688 42.9676 7.15108 43.3714C7.61495 43.864 9.12047 43.0712 9.56665 42.9724C12.1817 42.383 14.2939 41.2155 16.662 39.9912C19.7309 38.412 23.1854 37.8706 26.3545 36.545C32.3356 34.0418 37.7805 30.6738 44.0579 28.8329C52.0482 26.4865 59.8454 23.9566 67.6481 21.1166C69.4976 20.4434 71.381 19.9936 73.2305 19.3204C73.6911 19.1528 74.9725 18.8948 75.1717 18.3782C75.2653 18.1358 74.2717 17.7726 74.1698 17.7099C73.5368 17.3605 72.8509 17.0394 72.198 16.6789L71.9408 16.5369C69.557 15.221 67.1202 14.0419 64.7365 12.726C63.8066 12.2126 62.4933 12.3827 61.6752 11.9373C61.4774 11.8281 62.7201 9.83542 62.8365 9.612C63.9017 7.45736 65.0577 5.26969 65.7361 2.92067C65.8406 2.5564 66.678 0.883424 66.3068 0.493014C65.9611 0.129661 64.5385 0.738015 64.2175 0.854876C61.9143 1.69315 59.5867 2.48593 57.3272 3.44421C54.2338 4.76043 50.9825 5.70819 47.8949 7.04039C42.1098 9.51753 36.9174 10.3655 30.9991 12.5196C24.1175 15.0243 18.0177 18.6126 10.9805 20.4943C8.46615 21.1648 1.19386 24.0292 0.5448 24.2655Z" stroke="#292524" stroke-width="0.351792" stroke-miterlimit="2.854" stroke-linecap="round" stroke-linejoin="round"/>
</svg>
